<mxfile modified="2020-01-09T07:50:12.544Z" host="www.draw.io" agent="Mozilla/5.0 (X11; Linux x86_64; rv:72.0) Gecko/20100101 Firefox/72.0" etag="gaZbIPYVgO1zGI-JIZpe" version="12.4.9" type="github">
  <diagram id="PBd7I97_iz6SL33BSWpR" name="Page-1">
    <mxGraphModel dx="1102" dy="568" grid="1" gridSize="10" guides="1" tooltips="1" connect="1" arrows="1" fold="1" page="1" pageScale="1" pageWidth="827" pageHeight="1169" math="0" shadow="0">
      <root>
        <mxCell id="0"/>
        <mxCell id="1" parent="0"/>
        <mxCell id="J5hD7kxmrD2mWsTnJBY3-1" value="Robot" style="swimlane;fontStyle=1;align=center;verticalAlign=top;childLayout=stackLayout;horizontal=1;startSize=26;horizontalStack=0;resizeParent=1;resizeParentMax=0;resizeLast=0;collapsible=1;marginBottom=0;" parent="1" vertex="1">
          <mxGeometry x="120" y="40" width="200" height="190" as="geometry">
            <mxRectangle x="120" y="40" width="60" height="26" as="alternateBounds"/>
          </mxGeometry>
        </mxCell>
        <mxCell id="J5hD7kxmrD2mWsTnJBY3-2" value="+ name : string&#xa;+ x : float&#xa;+ y : float&#xa;- snapshot : list&#xa;- target : tuple&#xa;- color : integer&#xa;&#xa;" style="text;strokeColor=none;fillColor=none;align=left;verticalAlign=top;spacingLeft=4;spacingRight=4;overflow=hidden;rotatable=0;points=[[0,0.5],[1,0.5]];portConstraint=eastwest;" parent="J5hD7kxmrD2mWsTnJBY3-1" vertex="1">
          <mxGeometry y="26" width="200" height="94" as="geometry"/>
        </mxCell>
        <mxCell id="J5hD7kxmrD2mWsTnJBY3-3" value="" style="line;strokeWidth=1;fillColor=none;align=left;verticalAlign=middle;spacingTop=-1;spacingLeft=3;spacingRight=3;rotatable=0;labelPosition=right;points=[];portConstraint=eastwest;" parent="J5hD7kxmrD2mWsTnJBY3-1" vertex="1">
          <mxGeometry y="120" width="200" height="8" as="geometry"/>
        </mxCell>
        <mxCell id="J5hD7kxmrD2mWsTnJBY3-4" value="+ LOOK(list : network)&#xa;+ COMPUTE(string : algorithm)&#xa;+ MOVE()&#xa;" style="text;strokeColor=none;fillColor=none;align=left;verticalAlign=top;spacingLeft=4;spacingRight=4;overflow=hidden;rotatable=0;points=[[0,0.5],[1,0.5]];portConstraint=eastwest;" parent="J5hD7kxmrD2mWsTnJBY3-1" vertex="1">
          <mxGeometry y="128" width="200" height="62" as="geometry"/>
        </mxCell>
        <mxCell id="J5hD7kxmrD2mWsTnJBY3-5" value="" style="rounded=0;whiteSpace=wrap;html=1;" parent="1" vertex="1">
          <mxGeometry x="400" y="40" width="120" height="120" as="geometry"/>
        </mxCell>
        <mxCell id="J5hD7kxmrD2mWsTnJBY3-6" value="" style="rounded=0;whiteSpace=wrap;html=1;" parent="1" vertex="1">
          <mxGeometry x="520" y="40" width="120" height="120" as="geometry"/>
        </mxCell>
        <mxCell id="J5hD7kxmrD2mWsTnJBY3-7" value="" style="rounded=0;whiteSpace=wrap;html=1;" parent="1" vertex="1">
          <mxGeometry x="640" y="40" width="120" height="120" as="geometry"/>
        </mxCell>
        <mxCell id="J5hD7kxmrD2mWsTnJBY3-8" value="" style="rounded=0;whiteSpace=wrap;html=1;" parent="1" vertex="1">
          <mxGeometry x="400" y="160" width="120" height="120" as="geometry"/>
        </mxCell>
        <mxCell id="J5hD7kxmrD2mWsTnJBY3-9" value="" style="rounded=0;whiteSpace=wrap;html=1;" parent="1" vertex="1">
          <mxGeometry x="520" y="160" width="120" height="120" as="geometry"/>
        </mxCell>
        <mxCell id="J5hD7kxmrD2mWsTnJBY3-10" value="" style="rounded=0;whiteSpace=wrap;html=1;" parent="1" vertex="1">
          <mxGeometry x="640" y="160" width="120" height="120" as="geometry"/>
        </mxCell>
        <mxCell id="J5hD7kxmrD2mWsTnJBY3-12" value="" style="whiteSpace=wrap;html=1;aspect=fixed;fillColor=#f8cecc;strokeColor=#b85450;" parent="1" vertex="1">
          <mxGeometry x="409" y="100" width="40" height="40" as="geometry"/>
        </mxCell>
        <mxCell id="J5hD7kxmrD2mWsTnJBY3-13" value="" style="whiteSpace=wrap;html=1;aspect=fixed;fillColor=#dae8fc;strokeColor=#6c8ebf;" parent="1" vertex="1">
          <mxGeometry x="465" y="100" width="40" height="40" as="geometry"/>
        </mxCell>
        <mxCell id="J5hD7kxmrD2mWsTnJBY3-14" value="" style="whiteSpace=wrap;html=1;aspect=fixed;fillColor=#f8cecc;strokeColor=#b85450;" parent="1" vertex="1">
          <mxGeometry x="540" y="100" width="40" height="40" as="geometry"/>
        </mxCell>
        <mxCell id="J5hD7kxmrD2mWsTnJBY3-15" value="" style="whiteSpace=wrap;html=1;aspect=fixed;fillColor=#d5e8d4;strokeColor=#82b366;" parent="1" vertex="1">
          <mxGeometry x="580" y="100" width="40" height="40" as="geometry"/>
        </mxCell>
        <mxCell id="J5hD7kxmrD2mWsTnJBY3-16" value="" style="whiteSpace=wrap;html=1;aspect=fixed;fillColor=#f8cecc;strokeColor=#b85450;" parent="1" vertex="1">
          <mxGeometry x="670" y="68" width="40" height="40" as="geometry"/>
        </mxCell>
        <mxCell id="J5hD7kxmrD2mWsTnJBY3-17" value="" style="whiteSpace=wrap;html=1;aspect=fixed;fillColor=#d5e8d4;strokeColor=#82b366;" parent="1" vertex="1">
          <mxGeometry x="670" y="108" width="40" height="40" as="geometry"/>
        </mxCell>
        <mxCell id="J5hD7kxmrD2mWsTnJBY3-18" value="" style="whiteSpace=wrap;html=1;aspect=fixed;fillColor=#f8cecc;strokeColor=#b85450;" parent="1" vertex="1">
          <mxGeometry x="413" y="184" width="40" height="40" as="geometry"/>
        </mxCell>
        <mxCell id="J5hD7kxmrD2mWsTnJBY3-19" value="" style="whiteSpace=wrap;html=1;aspect=fixed;fillColor=#d5e8d4;strokeColor=#82b366;" parent="1" vertex="1">
          <mxGeometry x="413" y="229" width="40" height="40" as="geometry"/>
        </mxCell>
        <mxCell id="J5hD7kxmrD2mWsTnJBY3-20" value="" style="whiteSpace=wrap;html=1;aspect=fixed;fillColor=#dae8fc;strokeColor=#6c8ebf;" parent="1" vertex="1">
          <mxGeometry x="466.5" y="189" width="40" height="40" as="geometry"/>
        </mxCell>
        <mxCell id="J5hD7kxmrD2mWsTnJBY3-21" value="" style="whiteSpace=wrap;html=1;aspect=fixed;fillColor=#f8cecc;strokeColor=#b85450;rotation=45;direction=south;" parent="1" vertex="1">
          <mxGeometry x="590" y="229" width="40" height="40" as="geometry"/>
        </mxCell>
        <mxCell id="J5hD7kxmrD2mWsTnJBY3-22" value="" style="whiteSpace=wrap;html=1;aspect=fixed;fillColor=#d5e8d4;strokeColor=#82b366;rotation=45;" parent="1" vertex="1">
          <mxGeometry x="533.5" y="229" width="40" height="40" as="geometry"/>
        </mxCell>
        <mxCell id="J5hD7kxmrD2mWsTnJBY3-23" value="" style="whiteSpace=wrap;html=1;aspect=fixed;fillColor=#dae8fc;strokeColor=#6c8ebf;rotation=45;" parent="1" vertex="1">
          <mxGeometry x="680" y="200" width="40" height="40" as="geometry"/>
        </mxCell>
        <mxCell id="J5hD7kxmrD2mWsTnJBY3-27" value="" style="whiteSpace=wrap;html=1;aspect=fixed;fillColor=#dae8fc;strokeColor=#6c8ebf;" parent="1" vertex="1">
          <mxGeometry x="560" y="169" width="40" height="40" as="geometry"/>
        </mxCell>
        <mxCell id="J5hD7kxmrD2mWsTnJBY3-33" value="" style="ellipse;whiteSpace=wrap;html=1;aspect=fixed;fillColor=#F8CECC;strokeColor=#b85450;gradientColor=none;" parent="1" vertex="1">
          <mxGeometry x="280" y="720" width="80" height="80" as="geometry"/>
        </mxCell>
        <mxCell id="J5hD7kxmrD2mWsTnJBY3-34" value="" style="ellipse;whiteSpace=wrap;html=1;aspect=fixed;fillColor=#e51400;strokeColor=#B20000;fontColor=#ffffff;" parent="1" vertex="1">
          <mxGeometry x="230" y="910" width="20" height="20" as="geometry"/>
        </mxCell>
        <mxCell id="J5hD7kxmrD2mWsTnJBY3-35" value="" style="ellipse;whiteSpace=wrap;html=1;aspect=fixed;fillColor=#000000;strokeColor=none;fontColor=#ffffff;" parent="1" vertex="1">
          <mxGeometry x="390" y="910" width="20" height="20" as="geometry"/>
        </mxCell>
        <mxCell id="J5hD7kxmrD2mWsTnJBY3-36" value="" style="ellipse;whiteSpace=wrap;html=1;aspect=fixed;fillColor=#000000;strokeColor=none;fontColor=#ffffff;" parent="1" vertex="1">
          <mxGeometry x="280" y="750" width="20" height="20" as="geometry"/>
        </mxCell>
        <mxCell id="J5hD7kxmrD2mWsTnJBY3-42" value="" style="ellipse;whiteSpace=wrap;html=1;aspect=fixed;fillColor=#F8CECC;strokeColor=#b85450;gradientColor=none;flipH=0;" parent="1" vertex="1">
          <mxGeometry x="560" y="720" width="80" height="80" as="geometry"/>
        </mxCell>
        <mxCell id="J5hD7kxmrD2mWsTnJBY3-43" value="" style="ellipse;whiteSpace=wrap;html=1;aspect=fixed;fillColor=#000000;strokeColor=none;fontColor=#ffffff;flipH=0;" parent="1" vertex="1">
          <mxGeometry x="510" y="910" width="20" height="20" as="geometry"/>
        </mxCell>
        <mxCell id="J5hD7kxmrD2mWsTnJBY3-44" value="" style="ellipse;whiteSpace=wrap;html=1;aspect=fixed;fillColor=#e51400;strokeColor=#B20000;fontColor=#ffffff;flipH=0;" parent="1" vertex="1">
          <mxGeometry x="670" y="910" width="20" height="20" as="geometry"/>
        </mxCell>
        <mxCell id="J5hD7kxmrD2mWsTnJBY3-45" value="" style="ellipse;whiteSpace=wrap;html=1;aspect=fixed;fillColor=#000000;strokeColor=none;fontColor=#ffffff;flipH=0;" parent="1" vertex="1">
          <mxGeometry x="620" y="750" width="20" height="20" as="geometry"/>
        </mxCell>
        <mxCell id="J5hD7kxmrD2mWsTnJBY3-50" value="&lt;font style=&quot;font-size: 16px&quot;&gt;&lt;b&gt;r&lt;sub&gt;1&lt;/sub&gt;&lt;/b&gt;&lt;/font&gt;" style="text;html=1;strokeColor=none;fillColor=none;align=center;verticalAlign=middle;whiteSpace=wrap;rounded=0;" parent="1" vertex="1">
          <mxGeometry x="220" y="930" width="40" height="30" as="geometry"/>
        </mxCell>
        <mxCell id="J5hD7kxmrD2mWsTnJBY3-51" value="&lt;font style=&quot;font-size: 16px&quot;&gt;&lt;b&gt;r&lt;sub&gt;2&lt;/sub&gt;&lt;/b&gt;&lt;/font&gt;" style="text;html=1;strokeColor=none;fillColor=none;align=center;verticalAlign=middle;whiteSpace=wrap;rounded=0;" parent="1" vertex="1">
          <mxGeometry x="380" y="930" width="40" height="30" as="geometry"/>
        </mxCell>
        <mxCell id="J5hD7kxmrD2mWsTnJBY3-52" value="&lt;font style=&quot;font-size: 16px&quot;&gt;&lt;b&gt;r&lt;sub&gt;3&lt;/sub&gt;&lt;/b&gt;&lt;/font&gt;" style="text;html=1;strokeColor=none;fillColor=none;align=center;verticalAlign=middle;whiteSpace=wrap;rounded=0;" parent="1" vertex="1">
          <mxGeometry x="300" y="690" width="40" height="30" as="geometry"/>
        </mxCell>
        <mxCell id="J5hD7kxmrD2mWsTnJBY3-53" value="&lt;font style=&quot;font-size: 16px&quot;&gt;&lt;b&gt;r&lt;sub&gt;1&lt;/sub&gt;&lt;/b&gt;&lt;/font&gt;" style="text;html=1;strokeColor=none;fillColor=none;align=center;verticalAlign=middle;whiteSpace=wrap;rounded=0;" parent="1" vertex="1">
          <mxGeometry x="500" y="930" width="40" height="30" as="geometry"/>
        </mxCell>
        <mxCell id="J5hD7kxmrD2mWsTnJBY3-54" value="&lt;font style=&quot;font-size: 16px&quot;&gt;&lt;b&gt;r&lt;sub&gt;2&lt;/sub&gt;&lt;/b&gt;&lt;/font&gt;" style="text;html=1;strokeColor=none;fillColor=none;align=center;verticalAlign=middle;whiteSpace=wrap;rounded=0;" parent="1" vertex="1">
          <mxGeometry x="660" y="930" width="40" height="30" as="geometry"/>
        </mxCell>
        <mxCell id="J5hD7kxmrD2mWsTnJBY3-55" value="&lt;font style=&quot;font-size: 16px&quot;&gt;&lt;b&gt;r&lt;sub&gt;3&lt;/sub&gt;&lt;/b&gt;&lt;/font&gt;" style="text;html=1;strokeColor=none;fillColor=none;align=center;verticalAlign=middle;whiteSpace=wrap;rounded=0;" parent="1" vertex="1">
          <mxGeometry x="580" y="690" width="40" height="30" as="geometry"/>
        </mxCell>
        <mxCell id="J5hD7kxmrD2mWsTnJBY3-56" value="" style="group" parent="1" vertex="1" connectable="0">
          <mxGeometry x="360" y="370" width="200" height="270" as="geometry"/>
        </mxCell>
        <mxCell id="J5hD7kxmrD2mWsTnJBY3-32" value="" style="ellipse;whiteSpace=wrap;html=1;aspect=fixed;fillColor=#F8CECC;strokeColor=#b85450;gradientColor=none;" parent="J5hD7kxmrD2mWsTnJBY3-56" vertex="1">
          <mxGeometry x="60" y="30" width="80" height="80" as="geometry"/>
        </mxCell>
        <mxCell id="J5hD7kxmrD2mWsTnJBY3-29" value="" style="ellipse;whiteSpace=wrap;html=1;aspect=fixed;fillColor=#000000;strokeColor=none;fontColor=#ffffff;" parent="J5hD7kxmrD2mWsTnJBY3-56" vertex="1">
          <mxGeometry x="10" y="220" width="20" height="20" as="geometry"/>
        </mxCell>
        <mxCell id="J5hD7kxmrD2mWsTnJBY3-30" value="" style="ellipse;whiteSpace=wrap;html=1;aspect=fixed;fillColor=#000000;strokeColor=none;fontColor=#ffffff;" parent="J5hD7kxmrD2mWsTnJBY3-56" vertex="1">
          <mxGeometry x="170" y="220" width="20" height="20" as="geometry"/>
        </mxCell>
        <mxCell id="J5hD7kxmrD2mWsTnJBY3-31" value="" style="ellipse;whiteSpace=wrap;html=1;aspect=fixed;fillColor=#000000;strokeColor=none;fontColor=#ffffff;" parent="J5hD7kxmrD2mWsTnJBY3-56" vertex="1">
          <mxGeometry x="90" y="60" width="20" height="20" as="geometry"/>
        </mxCell>
        <mxCell id="J5hD7kxmrD2mWsTnJBY3-47" value="&lt;font style=&quot;font-size: 16px&quot;&gt;&lt;b&gt;r&lt;sub&gt;1&lt;/sub&gt;&lt;/b&gt;&lt;/font&gt;" style="text;html=1;strokeColor=none;fillColor=none;align=center;verticalAlign=middle;whiteSpace=wrap;rounded=0;" parent="J5hD7kxmrD2mWsTnJBY3-56" vertex="1">
          <mxGeometry y="240" width="40" height="30" as="geometry"/>
        </mxCell>
        <mxCell id="J5hD7kxmrD2mWsTnJBY3-48" value="&lt;font style=&quot;font-size: 16px&quot;&gt;&lt;b&gt;r&lt;sub&gt;2&lt;/sub&gt;&lt;/b&gt;&lt;/font&gt;" style="text;html=1;strokeColor=none;fillColor=none;align=center;verticalAlign=middle;whiteSpace=wrap;rounded=0;" parent="J5hD7kxmrD2mWsTnJBY3-56" vertex="1">
          <mxGeometry x="160" y="240" width="40" height="30" as="geometry"/>
        </mxCell>
        <mxCell id="J5hD7kxmrD2mWsTnJBY3-49" value="&lt;font style=&quot;font-size: 16px&quot;&gt;&lt;b&gt;r&lt;sub&gt;3&lt;/sub&gt;&lt;/b&gt;&lt;/font&gt;" style="text;html=1;strokeColor=none;fillColor=none;align=center;verticalAlign=middle;whiteSpace=wrap;rounded=0;" parent="J5hD7kxmrD2mWsTnJBY3-56" vertex="1">
          <mxGeometry x="80" width="40" height="30" as="geometry"/>
        </mxCell>
        <mxCell id="J5hD7kxmrD2mWsTnJBY3-57" value="" style="endArrow=none;dashed=1;html=1;" parent="1" edge="1">
          <mxGeometry width="50" height="50" relative="1" as="geometry">
            <mxPoint x="240" y="680" as="sourcePoint"/>
            <mxPoint x="680" y="680" as="targetPoint"/>
          </mxGeometry>
        </mxCell>
        <mxCell id="J5hD7kxmrD2mWsTnJBY3-58" value="" style="endArrow=none;dashed=1;html=1;" parent="1" edge="1">
          <mxGeometry width="50" height="50" relative="1" as="geometry">
            <mxPoint x="460" y="960" as="sourcePoint"/>
            <mxPoint x="460" y="680" as="targetPoint"/>
          </mxGeometry>
        </mxCell>
      </root>
    </mxGraphModel>
  </diagram>
</mxfile>
